<?xml version="1.0" standalone="no"?>
<!DOCTYPE svg PUBLIC "-//W3C//DTD SVG 20010904//EN"
 "http://www.w3.org/TR/2001/REC-SVG-20010904/DTD/svg10.dtd">
<svg version="1.0" xmlns="http://www.w3.org/2000/svg"
 width="260.000000pt" height="260.000000pt" viewBox="0 0 260.000000 260.000000"
 preserveAspectRatio="xMidYMid meet">
<metadata>
Created by potrace 1.11, written by Peter Selinger 2001-2013
</metadata>
<g transform="translate(0.000000,260.000000) scale(0.100000,-0.100000)"
fill="#000000" stroke="none">
<path d="M1139 2596 c-2 -2 -22 -6 -44 -9 -136 -16 -339 -93 -480 -183 -164
-104 -323 -273 -398 -424 -29 -59 -32 -73 -32 -160 0 -81 4 -102 24 -140 54
-103 141 -181 253 -226 107 -44 181 -35 345 43 98 47 161 62 233 58 102 -7
161 -47 221 -153 45 -80 102 -136 177 -175 112 -59 189 -73 276 -51 148 38
271 197 345 444 38 128 77 209 132 275 61 72 82 126 76 190 -6 65 -36 113
-114 185 -240 221 -492 318 -849 326 -89 2 -163 2 -165 0z"/>
<path d="M2324 1887 c-73 -39 -112 -121 -139 -297 -16 -104 -31 -151 -64 -205
-53 -87 -60 -107 -56 -166 4 -63 28 -116 100 -219 64 -92 85 -150 80 -227 -4
-70 -7 -81 -39 -160 -30 -73 -33 -104 -8 -125 34 -30 60 -28 105 6 120 92 235
329 278 576 28 158 20 366 -19 520 -32 128 -75 220 -120 263 -34 33 -90 49
-118 34z"/>
<path d="M57 1534 c-12 -14 -28 -42 -36 -62 -17 -45 -23 -244 -11 -327 5 -33
12 -80 16 -105 10 -75 83 -279 137 -385 44 -87 65 -114 157 -205 116 -116 174
-152 256 -158 68 -5 126 21 184 82 56 60 122 126 190 191 70 67 132 148 180
237 35 66 87 189 95 228 2 8 8 35 13 59 14 59 8 150 -11 186 -26 48 -85 102
-140 130 -92 46 -222 29 -337 -43 -80 -51 -117 -64 -180 -64 -108 -1 -181 36
-298 151 -115 114 -170 136 -215 85z"/>
<path d="M1705 1095 c-132 -24 -288 -95 -372 -169 -93 -83 -129 -199 -84 -273
11 -17 44 -49 74 -72 83 -61 96 -108 66 -244 -35 -155 21 -293 127 -313 103
-19 236 28 310 109 90 99 224 324 278 468 66 175 46 304 -63 402 -94 85 -206
116 -336 92z"/>
<path d="M1070 524 c-105 -48 -233 -167 -277 -256 -42 -82 -24 -149 50 -192
58 -34 169 -66 248 -73 117 -10 154 28 165 169 3 40 13 108 24 150 20 87 18
108 -17 156 -49 65 -117 81 -193 46z"/>
</g>
</svg>
